HIERARCHY
ROOT Hips
{
	OFFSET 0.000000 0.000000 0.000000
	CHANNELS 6 Xposition Yposition Zposition Zrotation Yrotation Xrotation 
	JOINT LowerBack
	{
		OFFSET 0.000000 0.000000 0.000000
		CHANNELS 3 Zrotation Yrotation Xrotation
		JOINT Spine
		{
			OFFSET 0.028270 2.035590 -0.193380
			CHANNELS 3 Zrotation Yrotation Xrotation
			JOINT Spine1
			{
				OFFSET 0.056720 2.048850 -0.042750
				CHANNELS 3 Zrotation Yrotation Xrotation
				JOINT Neck
				{
					OFFSET 0.000000 0.000000 0.000000
					CHANNELS 3 Zrotation Yrotation Xrotation
					JOINT Neck1
					{
						OFFSET -0.054170 1.746240 0.172020
						CHANNELS 3 Zrotation Yrotation Xrotation
						JOINT Head
						{
							OFFSET 0.104070 1.761360 -0.123970
							CHANNELS 3 Zrotation Yrotation Xrotation
							End Site
							{
								OFFSET 0.000000 0.000000 0.000000
							}
						}
					}
				}
				JOINT LeftShoulder
				{
					OFFSET 0.000000 0.000000 0.000000
					CHANNELS 3 Zrotation Yrotation Xrotation
					JOINT LeftArm
					{
						OFFSET 3.362410 1.200890 -0.311210
						CHANNELS 3 Zrotation Yrotation Xrotation
						JOINT LeftForeArm
						{
							OFFSET 4.983000 -0.000000 -0.000000
							CHANNELS 3 Zrotation Yrotation Xrotation
							JOINT LeftHand
							{
								OFFSET 3.483560 -0.000000 -0.000000
								CHANNELS 3 Zrotation Yrotation Xrotation
								JOINT LeftFingerBase
								{
									OFFSET 0.000000 0.000000 0.000000
									CHANNELS 3 Zrotation Yrotation Xrotation
									JOINT LeftHandIndex1
									{
										OFFSET 0.715260 -0.000000 -0.000000
										CHANNELS 3 Zrotation Yrotation Xrotation
										End Site
										{
											OFFSET 0.000000 0.000000 0.000000
										}
									}
								}
								JOINT LThumb
								{
									OFFSET 0.000000 0.000000 0.000000
									CHANNELS 3 Zrotation Yrotation Xrotation
									End Site
									{
										OFFSET 0.000000 0.000000 0.000000
									}
								}
							}
						}
					}
				}
				JOINT RightShoulder
				{
					OFFSET 0.000000 0.000000 0.000000
					CHANNELS 3 Zrotation Yrotation Xrotation
					JOINT RightArm
					{
						OFFSET -3.136600 1.374050 -0.404650
						CHANNELS 3 Zrotation Yrotation Xrotation
						JOINT RightForeArm
						{
							OFFSET -5.241900 -0.000000 -0.000000
							CHANNELS 3 Zrotation Yrotation Xrotation
							JOINT RightHand
							{
								OFFSET -3.444170 -0.000000 -0.000000
								CHANNELS 3 Zrotation Yrotation Xrotation
								JOINT RightFingerBase
								{
									OFFSET 0.000000 0.000000 0.000000
									CHANNELS 3 Zrotation Yrotation Xrotation
									JOINT RightHandIndex1
									{
										OFFSET -0.622530 -0.000000 -0.000000
										CHANNELS 3 Zrotation Yrotation Xrotation
										End Site
										{
											OFFSET 0.000000 0.000000 0.000000
										}
									}
								}
								JOINT RThumb
								{
									OFFSET 0.000000 0.000000 0.000000
									CHANNELS 3 Zrotation Yrotation Xrotation
									End Site
									{
										OFFSET 0.000000 0.000000 0.000000
									}
								}
							}
						}
					}
				}
			}
		}
	}
}
}
MOTION
Frames: 15
Frame Time: 0.008333
7.609192 16.674115 0.031389 21.090104 82.170239 36.302043 -6.299665 0.008424 -3.210599 -1.946051 0.389914 -3.604303 -5.712551 0.373714 -0.218079 10.923433 -5.760015 -5.250527 -2.211656 -0.195457 0.603131 0.000000 0.000000 0.000000 -1.602471 11.958371 2.151741 -56.783777 6.335784 3.142555 -0.655738 -78.583807 -0.022187 5.854702 3.577574 0.181793 -0.162141 0.153569 0.000000 0.000000 0.000000 0.000000 0.000000 0.000000 0.000000 7.816441 1.295833 -0.515673 61.512808 31.446336 21.571138 179.740270 86.098050 -179.950479 7.060072 5.355053 0.371505 -0.159830 -0.521993 -0.000000 0.000000 0.000000 0.000000 0.000000 0.000000 0.000000 
7.786185 16.632577 0.034300 22.363530 82.035535 37.342913 -6.610960 0.031896 -3.007976 -2.012602 0.440153 -3.576492 -5.740333 0.426092 -0.263612 11.061359 -5.819260 -5.179233 -2.191359 -0.194607 0.617319 0.000000 0.000000 0.000000 -1.785345 11.915142 2.113872 -57.014384 5.431144 3.058835 -0.686192 -77.978013 -0.024414 6.483739 3.472406 0.194410 -0.168449 0.157944 0.000000 0.000000 0.000000 0.000000 0.000000 0.000000 0.000000 7.794730 1.196246 -0.572964 62.012486 30.798104 21.291791 179.765259 86.317481 -179.950873 7.023279 5.347498 0.369015 -0.159449 -0.520838 -0.000000 0.000000 0.000000 0.000000 0.000000 0.000000 0.000000 
7.961513 16.602812 0.036409 23.038921 81.797386 37.821838 -6.872120 0.072896 -2.846336 -2.069137 0.503033 -3.556827 -5.768961 0.490479 -0.306747 11.181469 -5.857570 -5.100917 -2.176104 -0.194272 0.634047 0.000000 0.000000 0.000000 -1.993077 11.889315 2.067070 -57.280509 4.522453 2.973411 -0.714003 -77.406675 -0.026502 7.057329 3.366534 0.204324 -0.174095 0.162222 0.000000 0.000000 0.000000 0.000000 0.000000 0.000000 0.000000 7.782236 1.123487 -0.630078 62.543884 30.122800 21.055571 179.795266 86.626040 -179.951378 6.977764 5.295948 0.363228 -0.158615 -0.517966 -0.000000 0.000000 0.000000 0.000000 0.000000 0.000000 0.000000 
8.135412 16.584687 0.037173 23.176248 81.477633 37.790054 -7.075673 0.121357 -2.720778 -2.113187 0.568395 -3.543176 -5.796057 0.556715 -0.344817 11.285812 -5.873878 -5.016668 -2.166745 -0.194494 0.653070 0.000000 0.000000 0.000000 -2.219188 11.880197 2.012363 -57.587427 3.638752 2.887117 -0.737578 -76.904108 -0.028375 7.548328 3.267728 0.211235 -0.178824 0.166378 0.000000 0.000000 0.000000 0.000000 0.000000 0.000000 0.000000 7.788170 1.075566 -0.683554 63.077134 29.447975 20.872513 179.828497 87.016405 -179.951846 6.946666 5.190903 0.354738 -0.157785 -0.513082 -0.000000 0.000000 0.000000 0.000000 0.000000 0.000000 0.000000 
8.308066 16.577802 0.036132 22.877348 81.103644 37.341860 -7.213235 0.167166 -2.624428 -2.142315 0.625888 -3.533055 -5.819483 0.614535 -0.375447 11.375696 -5.870144 -4.928246 -2.163673 -0.195263 0.673937 0.000000 0.000000 0.000000 -2.455785 11.884802 1.951291 -57.937087 2.799897 2.805522 -0.755847 -76.496736 -0.029979 7.937184 3.184404 0.215746 -0.182491 0.170427 0.000000 0.000000 0.000000 0.000000 0.000000 0.000000 0.000000 7.818058 1.046907 -0.730762 63.586569 28.796618 20.748527 179.862965 87.477295 -179.952127 6.954021 5.026259 0.344443 -0.157420 -0.505995 -0.000000 0.000000 0.000000 0.000000 0.000000 0.000000 0.000000 
8.479565 16.581561 0.033047 22.260730 80.705563 36.589505 -7.277559 0.201287 -2.550134 -2.154602 0.666221 -3.524397 -5.837816 0.654752 -0.397999 11.451718 -5.850661 -4.837417 -2.166860 -0.196543 0.696206 0.000000 0.000000 0.000000 -2.694579 11.893555 1.885923 -58.326084 2.021973 2.736053 -0.768089 -76.203747 -0.031285 8.212469 3.124000 0.218356 -0.185023 0.174405 0.000000 0.000000 0.000000 0.000000 0.000000 0.000000 0.000000 7.873169 1.029850 -0.769750 64.054200 28.181962 20.684118 179.896691 87.992641 -179.952088 7.021410 4.800155 0.332935 -0.157931 -0.496670 -0.000000 0.000000 0.000000 0.000000 0.000000 0.000000 0.000000 
8.649968 16.595213 0.028082 21.467213 80.313912 35.671055 -7.269998 0.215160 -2.490930 -2.150063 0.681167 -3.514659 -5.850482 0.669348 -0.409608 11.516643 -5.825487 -4.749127 -2.175817 -0.198211 0.718457 0.000000 0.000000 0.000000 -2.921919 11.906210 1.818296 -58.748826 1.294084 2.697826 -0.774763 -76.023779 -0.032305 8.372515 3.091129 0.219766 -0.186494 0.178424 0.000000 0.000000 0.000000 0.000000 0.000000 0.000000 0.000000 7.955385 1.010500 -0.800017 64.468839 27.614026 20.675189 179.928105 88.544087 -179.951646 7.163867 4.515181 0.320517 -0.159583 -0.485218 -0.000000 0.000000 0.000000 0.000000 0.000000 0.000000 0.000000 
8.819280 16.618045 0.021337 20.577320 79.959777 34.668124 -7.186529 0.203780 -2.442673 -2.127913 0.665492 -3.503518 -5.857669 0.653142 -0.413177 11.569191 -5.800670 -4.664045 -2.189958 -0.200214 0.740606 0.000000 0.000000 0.000000 -3.130601 11.901233 1.750714 -59.193409 0.626206 2.699005 -0.775628 -75.961781 -0.033052 8.422884 3.088052 0.220580 -0.186942 0.182542 0.000000 0.000000 0.000000 0.000000 0.000000 0.000000 0.000000 8.058115 0.980290 -0.820935 64.827393 27.084412 20.707491 179.956055 89.110063 -179.950561 7.390216 4.177389 0.307387 -0.162550 -0.471888 -0.000000 0.000000 0.000000 0.000000 0.000000 0.000000 0.000000 
8.987440 16.649218 0.013317 19.677931 79.671420 33.670398 -7.032419 0.163274 -2.401997 -2.089389 0.615752 -3.490347 -5.860471 0.602825 -0.409389 11.610359 -5.786214 -4.585711 -2.208553 -0.202444 0.761672 0.000000 0.000000 0.000000 -3.308815 11.868398 1.685120 -59.646641 0.003782 2.756317 -0.771481 -76.003796 -0.033563 8.376833 3.112095 0.220894 -0.186513 0.186887 0.000000 0.000000 0.000000 0.000000 0.000000 0.000000 0.000000 8.177341 0.926770 -0.833172 65.132168 26.583501 20.762539 179.979151 89.669373 -179.949499 7.698095 3.796107 0.292745 -0.166799 -0.457050 -0.000000 0.000000 0.000000 0.000000 0.000000 0.000000 0.000000 
9.154365 16.688028 0.004611 18.826415 79.472499 32.739483 -6.813867 0.092433 -2.367055 -2.036050 0.531150 -3.475569 -5.860414 0.517673 -0.401233 11.639935 -5.790480 -4.515764 -2.230915 -0.204828 0.781230 0.000000 0.000000 0.000000 -3.447324 11.790497 1.623030 -60.093805 -0.581387 2.880524 -0.762863 -76.136245 -0.033881 8.252520 3.156976 0.220612 -0.185344 0.191573 0.000000 0.000000 0.000000 0.000000 0.000000 0.000000 0.000000 8.306698 0.840021 -0.837504 65.390264 26.094007 20.816895 -0.002406 89.797679 0.051996 8.074334 3.383161 0.275994 -0.172099 -0.441172 -0.000000 0.000000 0.000000 0.000000 0.000000 0.000000 0.000000 
9.319944 16.733677 -0.004124 18.066564 79.380199 31.923024 -6.540585 -0.008013 -2.336367 -1.970293 0.413061 -3.459277 -5.859624 0.399213 -0.389614 11.658696 -5.821943 -4.457742 -2.256352 -0.207265 0.798256 0.000000 0.000000 0.000000 -3.537105 11.664795 1.565430 -60.519820 -1.156339 3.087802 -0.751080 -76.333781 -0.034048 8.071811 3.212847 0.219533 -0.183672 0.196754 0.000000 0.000000 0.000000 0.000000 0.000000 0.000000 0.000000 8.441737 0.711017 -0.836036 65.610653 25.599306 20.845020 0.011337 89.308097 0.053714 8.495434 2.951431 0.256240 -0.178058 -0.424768 -0.000000 0.000000 0.000000 0.000000 0.000000 0.000000 0.000000 
9.484066 16.785472 -0.012242 17.423970 79.403600 31.249514 -6.222599 -0.135116 -2.309388 -1.894673 0.265050 -3.442552 -5.860265 0.251071 -0.378198 11.666108 -5.885210 -4.411974 -2.284591 -0.209739 0.812643 0.000000 0.000000 0.000000 -3.572180 11.478850 1.512831 -60.910402 -1.730349 3.381859 -0.736671 -76.580852 -0.034117 7.856534 3.268918 0.217359 -0.181666 0.202540 0.000000 0.000000 0.000000 0.000000 0.000000 0.000000 0.000000 8.577852 0.535655 -0.830074 65.802848 25.080254 20.821678 0.020541 88.874098 0.055399 8.929834 2.513177 0.232986 -0.184132 -0.408374 -0.000000 0.000000 0.000000 0.000000 0.000000 0.000000 0.000000 
9.646682 16.842679 -0.019243 16.914089 79.542555 30.735257 -5.870085 -0.284351 -2.285583 -1.811838 0.092267 -3.426031 -5.864483 0.078517 -0.368654 11.662097 -5.984038 -4.379757 -2.315452 -0.212222 0.823967 0.000000 0.000000 0.000000 -3.548791 11.232988 1.465050 -61.253505 -2.321586 3.766881 -0.720450 -76.859452 -0.034135 7.627564 3.314492 0.213890 -0.179547 0.209033 0.000000 0.000000 0.000000 0.000000 0.000000 0.000000 0.000000 8.712653 0.311753 -0.821668 65.975345 24.523178 20.725649 0.025625 88.502586 0.056815 9.339186 2.081256 0.206236 -0.189670 -0.392529 -0.000000 0.000000 0.000000 0.000000 0.000000 0.000000 0.000000 
9.807768 16.904541 -0.024658 16.547198 79.788574 30.389563 -5.493388 -0.450144 -2.264736 -1.724483 -0.099079 -3.411020 -5.874055 -0.112228 -0.365003 11.645858 -6.117451 -4.358955 -2.349141 -0.214769 0.832763 0.000000 0.000000 0.000000 -3.465471 10.918202 1.421641 -61.539565 -2.927216 4.232643 -0.702291 -77.165620 -0.034139 7.401681 3.341014 0.209025 -0.177436 0.216278 0.000000 0.000000 0.000000 0.000000 0.000000 0.000000 0.000000 8.844225 0.042589 -0.811651 66.135016 23.915110 20.539679 0.027185 88.195416 0.057844 9.685326 1.666476 0.176695 -0.194028 -0.377723 -0.000000 0.000000 0.000000 0.000000 0.000000 0.000000 0.000000 
9.967363 16.970322 -0.028303 16.315672 80.125862 30.202178 -5.099747 -0.626371 -2.246268 -1.634640 -0.302432 -3.397806 -5.890421 -0.314523 -0.367538 11.616736 -6.283872 -4.349650 -2.385861 -0.217395 0.838904 0.000000 0.000000 0.000000 -3.324353 10.544810 1.381725 -61.762398 -3.559323 4.773171 -0.682560 -77.491811 -0.034172 7.192196 3.342810 0.202865 -0.175521 0.224301 0.000000 0.000000 0.000000 0.000000 0.000000 0.000000 0.000000 8.972790 -0.267256 -0.801639 66.285275 23.253840 20.255759 0.025878 87.949626 0.058355 9.932235 1.278941 0.145567 -0.196617 -0.364359 -0.000000 0.000000 0.000000 0.000000 0.000000 0.000000 0.000000 
